<?xml version="1.0" encoding="UTF-8" standalone="no"?>
<svg
   xmlns:dc="http://purl.org/dc/elements/1.1/"
   xmlns:cc="http://creativecommons.org/ns#"
   xmlns:rdf="http://www.w3.org/1999/02/22-rdf-syntax-ns#"
   xmlns:svg="http://www.w3.org/2000/svg"
   xmlns="http://www.w3.org/2000/svg"
   xmlns:sodipodi="http://sodipodi.sourceforge.net/DTD/sodipodi-0.dtd"
   xmlns:inkscape="http://www.inkscape.org/namespaces/inkscape"
   sodipodi:docname="CulturewRoads.svg"
   inkscape:version="1.0 (4035a4fb49, 2020-05-01)"
   id="svg932"
   version="1.1"
   viewBox="0 0 15.875001 9.5250003"
   height="36"
   width="60.000004">
  <defs
     id="defs926">
    <filter
       inkscape:collect="always"
       style="color-interpolation-filters:sRGB"
       id="filter2532"
       x="-0.0098959999"
       width="1.0333107"
       y="-0.016493334"
       height="1.1510066">
      <feGaussianBlur
         inkscape:collect="always"
         stdDeviation="0.065457916"
         id="feGaussianBlur2534" />
    </filter>
  </defs>
  <sodipodi:namedview
     inkscape:window-maximized="1"
     inkscape:window-y="-8"
     inkscape:window-x="-8"
     inkscape:window-height="1017"
     inkscape:window-width="1920"
     fit-margin-bottom="0"
     fit-margin-right="0"
     fit-margin-left="0"
     fit-margin-top="0"
     units="px"
     showgrid="false"
     inkscape:document-rotation="0"
     inkscape:current-layer="layer1"
     inkscape:document-units="px"
     inkscape:cy="-18.545274"
     inkscape:cx="88.301038"
     inkscape:zoom="5.6568543"
     inkscape:pageshadow="2"
     inkscape:pageopacity="0.0"
     borderopacity="1.0"
     bordercolor="#666666"
     pagecolor="#ffffff"
     id="base" />
  <metadata
     id="metadata929">
    <rdf:RDF>
      <cc:Work
         rdf:about="">
        <dc:format>image/svg+xml</dc:format>
        <dc:type
           rdf:resource="http://purl.org/dc/dcmitype/StillImage" />
        <dc:title></dc:title>
      </cc:Work>
    </rdf:RDF>
  </metadata>
  <g
     transform="translate(-78.241074,-67.808937)"
     id="layer1"
     inkscape:groupmode="layer"
     inkscape:label="Layer 1">
    <g
       id="g1706">
      <rect
         style="fill:#9900ff;fill-opacity:0.75100398;stroke:none;stroke-width:0.1;stroke-miterlimit:4;stroke-dasharray:none"
         id="rect1686"
         width="15.875"
         height="9.5250006"
         x="78.241074"
         y="67.808937" />
      <g
         id="g1552"
         style="filter:url(#filter2532)"
         transform="matrix(0.87037344,0,0,0.92543247,79.170302,67.857679)">
        <g
           id="g1519">
          <path
             inkscape:transform-center-y="0.02812367"
             inkscape:transform-center-x="0.21149536"
             transform="matrix(1.0917063,0,0,1.0531113,-0.69501011,-0.50781914)"
             id="path1415"
             style="fill:#000000;fill-opacity:1;stroke:none;stroke-width:0.330056;stroke-miterlimit:4;stroke-dasharray:none;stroke-opacity:1;filter:url(#filter2532)"
             d="M 10.988603,5.5181126 C 10.826691,5.1799337 10.566342,4.7482908 10.266619,4.6973301 9.7177839,4.6042819 9.2219717,5.1136782 9.1592624,5.8350251 9.0964039,6.556347 9.4904169,7.216552 10.039258,7.3095387 11.336039,7.243774 11.955285,5.067694 12.186225,3.5625842 l 0.896478,0.3482605 0.512189,-1.1683559 c -0.465681,0.218122 -1.157667,-0.1115989 -1.755801,-0.52662 -0.105079,1.1680242 -0.469286,2.3178206 -0.850488,3.3022438 z"
             sodipodi:nodetypes="ccccccccc" />
          <path
             style="fill:none;stroke:#000000;stroke-width:0.1143;stroke-linecap:butt;stroke-linejoin:miter;stroke-miterlimit:4;stroke-dasharray:none;stroke-opacity:1"
             d="M 5.5659844,5.8105821 1.904754,7.3938459 c -0.09067,0.272965 0.4292734,1.2189472 0.7437762,1.3853186 L 6.2813363,7.0023266"
             id="path1470-1"
             sodipodi:nodetypes="cccc" />
          <path
             sodipodi:nodetypes="cc"
             style="fill:none;stroke:#000000;stroke-width:0.1143;stroke-linecap:butt;stroke-linejoin:miter;stroke-miterlimit:4;stroke-dasharray:none;stroke-opacity:1"
             d="M 2.2682556,8.3488539 C 4.1887485,7.8120969 3.1919342,7.5713622 5.593873,6.8405645"
             id="path1472-4-7-9" />
          <path
             id="path1472-4-7-9-6"
             d="M 2.0337662,7.9163251 C 3.9995424,7.3621016 2.9220346,7.1673318 5.3810979,6.4145"
             style="fill:none;stroke:#000000;stroke-width:0.1143;stroke-linecap:butt;stroke-linejoin:miter;stroke-miterlimit:4;stroke-dasharray:none;stroke-opacity:1"
             sodipodi:nodetypes="cc" />
          <path
             sodipodi:nodetypes="cc"
             id="path2450"
             d="M 5.5812798,5.8920783 C 5.6340397,6.190507 5.0299416,6.9083974 6.2074555,6.9866718"
             style="fill:none;stroke:#000000;stroke-width:0.1143;stroke-linecap:butt;stroke-linejoin:miter;stroke-miterlimit:4;stroke-dasharray:none;stroke-opacity:1" />
          <path
             sodipodi:nodetypes="cccc"
             id="path2693"
             d="M 1.8180463,7.2938296 5.7112343,3.8198432 8.9934301,2.6631419 5.4802075,5.8360636"
             style="fill:none;stroke:#000000;stroke-width:0.120867px;stroke-linecap:butt;stroke-linejoin:miter;stroke-opacity:1" />
          <path
             style="font-style:normal;font-weight:normal;font-size:7.17374px;line-height:1.25;font-family:sans-serif;fill:none;fill-opacity:1;stroke:#000000;stroke-width:0.120867px;stroke-linecap:butt;stroke-linejoin:miter;stroke-opacity:1"
             d="M 4.1684378,5.8201241 C 6.1903243,4.0994367 6.1903243,4.0994367 6.1903243,4.0994367 L 5.4599272,5.3722139"
             id="path2761" />
          <path
             sodipodi:nodetypes="cc"
             id="path2796"
             d="M 5.5413703,6.3958407 8.8306095,3.3338608"
             style="fill:none;stroke:#000000;stroke-width:0.101335;stroke-linecap:butt;stroke-linejoin:miter;stroke-miterlimit:4;stroke-dasharray:none;stroke-opacity:1" />
          <path
             sodipodi:nodetypes="cc"
             id="path2798"
             d="M 5.76531,6.8065474 9.1008059,3.823072"
             style="fill:none;stroke:#000000;stroke-width:0.101335;stroke-linecap:butt;stroke-linejoin:miter;stroke-miterlimit:4;stroke-dasharray:none;stroke-opacity:1" />
        </g>
        <path
           style="fill:none;stroke:#000000;stroke-width:0.127057px;stroke-linecap:butt;stroke-linejoin:miter;stroke-opacity:1"
           d="M 6.2214157,7.0564973 9.696071,3.8779022 C 8.8277726,4.0119262 8.7668604,3.1868968 8.8716176,2.7216497"
           id="path2695"
           sodipodi:nodetypes="ccc" />
      </g>
      <g
         id="g1684">
        <path
           sodipodi:nodetypes="ccaaccc"
           id="path1608"
           d="m 78.241074,72.04227 0.995393,-0.05268 c 0.128556,-0.740987 0.842631,-0.887089 1.248766,-0.65153 0.673687,0.390739 0.733729,1.895592 0.09049,2.334649 -0.386016,0.263484 -1.253695,0.113419 -1.284961,-0.561039 l -1.049688,-0.01106 z"
           style="fill:#050060;fill-opacity:0.751004;stroke:none;stroke-width:0.1;stroke-linecap:butt;stroke-linejoin:miter;stroke-miterlimit:4;stroke-dasharray:none;stroke-opacity:1" />
        <path
           inkscape:transform-center-y="0.5610398"
           inkscape:transform-center-x="-10.605462"
           style="fill:#050060;fill-opacity:0.751004;stroke:none;stroke-width:0.1;stroke-linecap:butt;stroke-linejoin:miter;stroke-miterlimit:4;stroke-dasharray:none;stroke-opacity:1"
           d="m 94.116074,72.04227 -0.963319,0.0011 c -0.128556,-0.740987 -0.842631,-0.887089 -1.248766,-0.65153 -0.673687,0.390739 -0.733729,1.895592 -0.09049,2.334649 0.386016,0.263484 1.253695,0.113419 1.284961,-0.561039 l 1.017614,-0.06488 z"
           id="path1608-3"
           sodipodi:nodetypes="ccaaccc" />
        <path
           sodipodi:nodetypes="ccssccc"
           id="path1608-3-9"
           d="m 85.649407,67.808937 0.01139,0.83028 c -0.740987,0.113342 -0.859214,0.781824 -0.615334,1.137183 0.387324,0.564372 1.928634,0.361871 2.334649,0.07978 0.388514,-0.269932 -0.01327,-1.21392 -0.687725,-1.241486 l 0.01536,-0.805757 z"
           style="fill:#050060;fill-opacity:0.751004;stroke:none;stroke-width:0.0938968;stroke-linecap:butt;stroke-linejoin:miter;stroke-miterlimit:4;stroke-dasharray:none;stroke-opacity:1"
           inkscape:transform-center-x="-0.56103976"
           inkscape:transform-center-y="-9.3504119" />
        <path
           inkscape:transform-center-y="9.3504116"
           inkscape:transform-center-x="-0.56103976"
           style="fill:#050060;fill-opacity:0.751004;stroke:none;stroke-width:0.0938969;stroke-linecap:butt;stroke-linejoin:miter;stroke-miterlimit:4;stroke-dasharray:none;stroke-opacity:1"
           d="m 85.649407,77.333937 0.0022,-0.830771 c -0.740987,-0.113342 -0.859214,-0.781824 -0.615334,-1.137183 0.387324,-0.564372 1.928634,-0.361871 2.334649,-0.07978 0.388514,0.269932 -0.01327,1.21392 -0.687725,1.241486 l 0.0245,0.806248 z"
           id="path1608-3-9-0"
           sodipodi:nodetypes="ccssccc" />
      </g>
    </g>
    <g
       style="stroke:#000000;stroke-opacity:1"
       id="g1717">
      <ellipse
         style="fill:none;fill-opacity:0.75100398;stroke:#000000;stroke-width:0.10583333;stroke-miterlimit:4;stroke-dasharray:none;stroke-opacity:1"
         id="path1708"
         cx="81.960228"
         cy="69.881165"
         rx="1.7102665"
         ry="1.7464626" />
      <path
         style="fill:none;stroke:#000000;stroke-width:0.10583333;stroke-linecap:butt;stroke-linejoin:miter;stroke-opacity:1;stroke-miterlimit:4;stroke-dasharray:none"
         d="m 81.100567,68.442369 c 0.658226,1.047944 0.459155,2.124176 0.162882,3.07667"
         id="path1710"
         sodipodi:nodetypes="cc" />
      <path
         style="fill:none;stroke:#000000;stroke-width:0.10583333;stroke-linecap:butt;stroke-linejoin:miter;stroke-opacity:1;stroke-miterlimit:4;stroke-dasharray:none"
         d="m 82.602706,68.225193 c -0.19446,0.848211 -0.463204,1.778256 0.325765,3.094767"
         id="path1712"
         sodipodi:nodetypes="cc" />
    </g>
    <g
       transform="matrix(0.36993918,0,0,0.41390505,61.459902,52.147828)"
       id="g1765">
      <path
         style="fill:none;stroke:#000000;stroke-width:0.276153px;stroke-linecap:butt;stroke-linejoin:miter;stroke-opacity:1"
         d="m 74.583397,56.010771 -0.03237,1.677288 c 3.365576,2.736919 7.362576,2.981054 11.266032,-0.16812 V 56.240213 C 82.09974,53.352889 79.507078,52.522073 74.583397,56.010771 Z"
         id="path1736"
         sodipodi:nodetypes="ccccc" />
      <path
         style="fill:none;stroke:#000000;stroke-width:0.264583px;stroke-linecap:butt;stroke-linejoin:miter;stroke-opacity:1"
         d="m 75.528055,55.472379 v 2.815397 l 0.665457,0.460701 0.102379,-3.787989 z"
         id="path1738" />
      <path
         style="fill:none;stroke:#000000;stroke-width:0.264583px;stroke-linecap:butt;stroke-linejoin:miter;stroke-opacity:1"
         d="m 84.600208,55.362725 -0.06288,3.027429 -0.767836,0.460701 0.03807,-3.938697 z"
         id="path1740"
         sodipodi:nodetypes="ccccc" />
    </g>
  </g>
</svg>
