<?xml version="1.0" encoding="UTF-8" standalone="no"?>
<svg
   xmlns:dc="http://purl.org/dc/elements/1.1/"
   xmlns:cc="http://creativecommons.org/ns#"
   xmlns:rdf="http://www.w3.org/1999/02/22-rdf-syntax-ns#"
   xmlns:svg="http://www.w3.org/2000/svg"
   xmlns="http://www.w3.org/2000/svg"
   xmlns:sodipodi="http://sodipodi.sourceforge.net/DTD/sodipodi-0.dtd"
   xmlns:inkscape="http://www.inkscape.org/namespaces/inkscape"
   sodipodi:docname="Industry3.svg"
   inkscape:version="1.0 (4035a4fb49, 2020-05-01)"
   inkscape:export-ydpi="96"
   inkscape:export-xdpi="96"
   inkscape:export-filename="C:\Users\nick_\Desktop\Prestige Cities Cards\WebIcons\Industry3.png"
   id="svg1495"
   version="1.1"
   viewBox="0 0 15.875 9.5249996"
   height="36"
   width="60">
  <defs
     id="defs1489" />
  <sodipodi:namedview
     inkscape:window-maximized="0"
     inkscape:window-y="0"
     inkscape:window-x="234"
     inkscape:window-height="1040"
     inkscape:window-width="1274"
     units="px"
     fit-margin-bottom="0"
     fit-margin-right="0"
     fit-margin-left="0"
     fit-margin-top="0"
     showgrid="false"
     inkscape:document-rotation="0"
     inkscape:current-layer="layer1"
     inkscape:document-units="mm"
     inkscape:cy="226.57143"
     inkscape:cx="-170"
     inkscape:zoom="0.35"
     inkscape:pageshadow="2"
     inkscape:pageopacity="0.0"
     borderopacity="1.0"
     bordercolor="#666666"
     pagecolor="#ffffff"
     id="base" />
  <metadata
     id="metadata1492">
    <rdf:RDF>
      <cc:Work
         rdf:about="">
        <dc:format>image/svg+xml</dc:format>
        <dc:type
           rdf:resource="http://purl.org/dc/dcmitype/StillImage" />
        <dc:title></dc:title>
      </cc:Work>
    </rdf:RDF>
  </metadata>
  <g
     transform="translate(-150.8125,-88.219643)"
     id="layer1"
     inkscape:groupmode="layer"
     inkscape:label="Layer 1">
    <g
       transform="translate(150.8125,88.152826)"
       id="g888">
      <rect
         y="0.06681738"
         x="0"
         height="9.5249996"
         width="15.875"
         id="rect833"
         style="display:inline;fill:#ffff00;fill-opacity:0.871486;stroke:none;stroke-width:0.0867278" />
      <path
         id="path1100"
         style="fill:#000000;fill-opacity:0.570281;stroke:none;stroke-width:0.114968;stroke-miterlimit:4;stroke-dasharray:none;stroke-opacity:0.666667"
         d="M 4.5727243,2.976715 A 1.066995,1.0669949 0 0 1 3.5057292,4.04371 1.066995,1.0669949 0 0 1 2.4387342,2.976715 1.066995,1.0669949 0 0 1 3.5057292,1.90972 1.066995,1.0669949 0 0 1 4.5727243,2.976715 Z m -0.6758044,-2.31975201 -0.7606771,0.0098 0.0093,0.69194801 A 1.5875,1.5875 0 0 0 2.6148257,1.573684 L 2.0453516,1.057954 1.5347883,1.621744 2.0887596,2.124039 A 1.5875,1.5875 0 0 0 1.9270142,2.522482 H 1.1906251 V 3.283159 H 1.9182292 A 1.5875,1.5875 0 0 0 2.1864299,3.875371 L 1.6696656,4.460865 2.2396567,4.964193 2.765206,4.368881 2.751254,4.356991 a 1.5875,1.5875 0 0 0 0.4356322,0.158646 l 0.010335,0.780831 0.7601604,-0.0098 -0.010335,-0.79375 -0.028422,5.29e-4 A 1.5875,1.5875 0 0 0 4.4333217,4.248501 L 4.9661058,4.730642 5.476669,4.166852 4.9268318,3.668175 A 1.5875,1.5875 0 0 0 5.0601563,3.283159 h 0.760677 V 2.522482 H 5.0312175 A 1.5875,1.5875 0 0 0 4.808492,2.054293 L 5.3035523,1.49257 4.7335612,0.98924199 4.2519367,1.534945 A 1.5875,1.5875 0 0 0 3.9062216,1.389218 Z" />
      <path
         d="M 6.8127385,6.7200451 A 1.066995,1.0669949 7.423783 0 1 5.616824,7.6402327 1.066995,1.0669949 7.423783 0 1 4.6966364,6.4443181 1.066995,1.0669949 7.423783 0 1 5.8925509,5.5241306 1.066995,1.0669949 7.423783 0 1 6.8127385,6.7200451 Z M 6.4423277,4.3324193 5.6867607,4.2438522 5.6065781,4.9312017 A 1.5875,1.5875 0 0 0 5.0525336,5.0758002 L 4.5544691,4.4908131 3.9753398,4.9839087 4.4597673,5.5535704 A 1.5875,1.5875 0 0 0 4.247896,5.9277748 L 3.5176796,5.832628 3.4193946,6.5869287 4.1408997,6.6809404 A 1.5875,1.5875 0 0 0 4.3303342,7.3028418 L 3.7422515,7.8166581 4.2424311,8.3894142 4.8404937,7.8669969 4.828195,7.8534035 a 1.5875,1.5875 0 0 0 0.4114823,0.213603 l -0.090641,0.7756211 0.7550549,0.0885 0.09231,-0.7884319 -0.028252,-0.00315 A 1.5875,1.5875 0 0 0 6.510181,7.9631582 L 6.9762032,8.5100973 7.555332,8.0170015 7.0745366,7.4514619 A 1.5875,1.5875 0 0 0 7.2564899,7.0869001 L 8.0107907,7.185185 8.1090756,6.4308843 7.3260787,6.3288603 A 1.5875,1.5875 0 0 0 7.1657136,5.8358181 L 7.7292027,5.342769 7.2290231,4.7700131 6.6809271,5.2489125 A 1.5875,1.5875 0 0 0 6.3569388,5.0597381 Z"
         style="fill:#000000;fill-opacity:0.570281;stroke:none;stroke-width:0.114968;stroke-miterlimit:4;stroke-dasharray:none;stroke-opacity:0.666667"
         id="path1100-6" />
      <path
         d="M 11.794084,5.0221209 A 1.3085602,1.3085603 76.500155 0 1 10.827154,6.6000015 1.3085602,1.3085603 76.500155 0 1 9.2492746,5.6330685 1.3085602,1.3085603 76.500155 0 1 10.216206,4.0551893 1.3085602,1.3085603 76.500155 0 1 11.794084,5.0221209 Z M 10.32405,2.4492647 9.419738,2.6787283 9.6289287,3.5012228 A 1.9469065,1.9469065 0 0 0 9.0575871,3.9095218 L 8.2308315,3.4575438 7.7833876,4.2760419 8.5878096,4.7164367 A 1.9469065,1.9469065 0 0 0 8.5089976,5.2378919 L 7.630844,5.4487155 7.8486211,6.3558327 8.7162985,6.1475243 A 1.9469065,1.9469065 0 0 0 9.2056781,6.7769619 L 8.7570528,7.6231163 9.5808747,8.0601578 10.037164,7.199778 10.017125,7.1895989 a 1.9469065,1.9469065 0 0 0 0.564916,0.064468 l 0.235866,0.9281934 0.903696,-0.2293158 -0.239565,-0.9435999 -0.03374,0.00877 a 1.9469065,1.9469065 0 0 0 0.543655,-0.4394625 l 0.773388,0.4224264 0.447442,-0.8184976 -0.798456,-0.437264 a 1.9469065,1.9469065 0 0 0 0.04876,-0.4973056 L 13.370208,5.0302335 13.15243,4.123116 12.210803,4.3491782 A 1.9469065,1.9469065 0 0 0 11.811158,3.8546216 l 0.429548,-0.8115949 -0.823822,-0.43704 -0.418111,0.7886438 a 1.9469065,1.9469065 0 0 0 -0.453991,-0.074805 z"
         style="fill:#000000;fill-opacity:0.570281;stroke:none;stroke-width:0.140996;stroke-miterlimit:4;stroke-dasharray:none;stroke-opacity:0.666667"
         id="path1100-8" />
      <path
         d="M 7.3167233,1.7771376 A 0.634663,0.63466306 78.711799 0 1 6.8185695,2.5237548 0.634663,0.63466306 78.711799 0 1 6.0719524,2.0256008 0.634663,0.63466306 78.711799 0 1 6.5701062,1.2789837 0.634663,0.63466306 78.711799 0 1 7.3167233,1.7771376 Z m -0.664293,-1.27444251 -0.4425615,0.0943114 0.085993,0.402534 A 0.94426646,0.94426646 0 0 0 6.0113204,1.1867284 L 5.619095,0.95220416 5.3869229,1.3405123 5.7685408,1.5690045 a 0.94426646,0.94426646 0 0 0 -0.047956,0.2512471 l -0.4295445,0.08574 0.088566,0.4437079 0.4244165,-0.084716 a 0.94426646,0.94426646 0 0 0 0.2253953,0.314214 l -0.2332617,0.4016901 0.3910829,0.2272296 0.2372436,-0.4084396 -0.00951,-0.00529 a 0.94426646,0.94426646 0 0 0 0.2725785,0.041818 l 0.096941,0.4542615 0.4422601,-0.094251 -0.098445,-0.4617973 -0.016517,0.00362 A 0.94426646,0.94426646 0 0 0 7.3834849,2.5352101 L 7.7503978,2.7544131 7.9825697,2.366105 7.6037846,2.1392421 A 0.94426646,0.94426646 0 0 0 7.6367255,1.8991362 L 8.0804336,1.8105696 7.991867,1.3668616 7.5312787,1.4587976 A 0.94426646,0.94426646 0 0 0 7.3468494,1.2116317 L 7.5702194,0.82633417 7.1791366,0.59910444 6.9617386,0.97349277 A 0.94426646,0.94426646 0 0 0 6.7431134,0.9287417 Z"
         style="fill:#000000;fill-opacity:0.570281;stroke:none;stroke-width:0.0683845;stroke-miterlimit:4;stroke-dasharray:none;stroke-opacity:0.666667"
         id="path1100-1" />
    </g>
  </g>
</svg>
