<?xml version="1.0" encoding="UTF-8" standalone="no"?>
<svg
   xmlns:dc="http://purl.org/dc/elements/1.1/"
   xmlns:cc="http://creativecommons.org/ns#"
   xmlns:rdf="http://www.w3.org/1999/02/22-rdf-syntax-ns#"
   xmlns:svg="http://www.w3.org/2000/svg"
   xmlns="http://www.w3.org/2000/svg"
   xmlns:sodipodi="http://sodipodi.sourceforge.net/DTD/sodipodi-0.dtd"
   xmlns:inkscape="http://www.inkscape.org/namespaces/inkscape"
   width="60"
   height="36"
   viewBox="0 0 15.875 9.5250003"
   version="1.1"
   id="svg8124"
   inkscape:version="1.0 (4035a4fb49, 2020-05-01)"
   sodipodi:docname="ResidentialwRoads2.svg">
  <defs
     id="defs8118" />
  <sodipodi:namedview
     id="base"
     pagecolor="#ffffff"
     bordercolor="#666666"
     borderopacity="1.0"
     inkscape:pageopacity="0.0"
     inkscape:pageshadow="2"
     inkscape:zoom="9.66"
     inkscape:cx="47.581592"
     inkscape:cy="8.5519309"
     inkscape:document-units="mm"
     inkscape:current-layer="layer1"
     inkscape:document-rotation="0"
     showgrid="false"
     units="px"
     fit-margin-top="0"
     fit-margin-left="0"
     fit-margin-right="0"
     fit-margin-bottom="0"
     inkscape:window-width="1274"
     inkscape:window-height="1008"
     inkscape:window-x="208"
     inkscape:window-y="0"
     inkscape:window-maximized="0" />
  <metadata
     id="metadata8121">
    <rdf:RDF>
      <cc:Work
         rdf:about="">
        <dc:format>image/svg+xml</dc:format>
        <dc:type
           rdf:resource="http://purl.org/dc/dcmitype/StillImage" />
        <dc:title></dc:title>
      </cc:Work>
    </rdf:RDF>
  </metadata>
  <g
     inkscape:label="Layer 1"
     inkscape:groupmode="layer"
     id="layer1"
     transform="translate(-131.15774,-94.267262)">
    <g
       id="g4328">
      <rect
         y="94.267265"
         x="131.15775"
         height="9.5249996"
         width="15.875"
         id="rect833"
         style="display:inline;fill:#ff0000;fill-opacity:0.48995984;stroke:none;stroke-width:0.0867278" />
      <path
         style="fill:none;stroke:#000000;stroke-width:0.28575;stroke-linecap:butt;stroke-linejoin:miter;stroke-miterlimit:4;stroke-dasharray:none;stroke-opacity:1"
         d="m 133.6785,96.661055 -0.008,2.221144 -0.008,-0.02522"
         id="path877"
         sodipodi:nodetypes="ccc" />
      <path
         style="fill:none;stroke:#000000;stroke-width:0.28575;stroke-linecap:butt;stroke-linejoin:miter;stroke-miterlimit:4;stroke-dasharray:none;stroke-opacity:1"
         d="m 138.2801,96.50782 -0.0432,2.17497 -4.55802,0.19986 -1.02533,-0.220817 0.0199,-2.103583"
         id="path1227"
         sodipodi:nodetypes="ccccc" />
      <path
         id="rect1185"
         style="fill:none;fill-opacity:0.751004;stroke:#000000;stroke-width:0.28575;stroke-miterlimit:4;stroke-dasharray:none;stroke-opacity:1"
         d="m 134.3563,97.155661 1.41905,-0.02756 -0.0135,0.789015 -1.40861,0.03846 z"
         sodipodi:nodetypes="ccccc" />
      <path
         style="fill:#000000;fill-opacity:0.425703;stroke:#000000;stroke-width:0.28575;stroke-miterlimit:4;stroke-dasharray:none;stroke-opacity:1"
         d="m 136.34462,98.763025 0.0231,-1.731609 0.93124,-0.01522 -0.0179,1.692044"
         id="path1220"
         sodipodi:nodetypes="cccc" />
      <path
         style="fill:none;stroke:#000000;stroke-width:0.28575;stroke-linecap:butt;stroke-linejoin:miter;stroke-miterlimit:4;stroke-dasharray:none;stroke-opacity:1"
         d="m 132.97928,95.164524 -0.44148,1.394314 0.13561,-5.88e-4"
         id="path1237"
         sodipodi:nodetypes="ccc" />
      <path
         style="fill:none;fill-opacity:0.751004;stroke:#000000;stroke-width:0.28575;stroke-linecap:butt;stroke-linejoin:miter;stroke-miterlimit:4;stroke-dasharray:none;stroke-opacity:1"
         d="m 138.46435,96.506219 -1.41981,-1.334407 -4.02499,0.02989 0.54058,1.420937 z"
         id="path1223"
         sodipodi:nodetypes="ccccc" />
      <path
         id="rect1358"
         style="fill:#000000;fill-opacity:0.526104;fill-rule:nonzero;stroke:none;stroke-width:0.0576545;stroke-miterlimit:4;stroke-dasharray:none;stroke-opacity:1"
         d="m 131.15774,98.500596 c 0.48124,-0.05005 0.70833,0.368406 1.09544,0.436675 2.41242,0.425434 6.66469,0.333616 7.34556,-0.221962 0.06,0.03349 0.0433,-1.811908 -0.40999,-2.708844 -0.46108,-0.912279 -0.61058,-0.951795 -0.62268,-1.739202 l 1.05834,-10e-7 c -0.0105,0.261075 0.21151,1.059793 0.24846,1.247069 0.0467,0.236594 0.5058,0.985119 0.57569,1.280839 0.22385,0.947146 0.12005,1.805451 0.57114,1.668149 1.06507,-0.324184 3.00519,-0.04575 4.37492,0.273208 1.00063,0.233009 1.22574,-0.245764 1.63812,-0.235931 v 1.058333 c -0.46147,0.02408 -0.49806,0.417989 -1.03087,0.366859 -0.49953,-0.04794 -4.18429,-0.848742 -5.45266,-0.400987 0.14339,-0.08264 0.10991,0.510969 -0.11855,1.643989 -0.0594,0.29468 -0.75714,2.20686 -0.80625,2.62347 h -1.05834 c 0.18679,-1.32124 0.44232,-1.73149 0.7991,-2.62841 0.62746,-1.577408 -0.7227,-1.328333 -1.07592,-1.28144 -1.09886,0.14588 -2.03184,0.15548 -2.7641,0.1838 -0.73771,-0.08897 -1.55126,0.12497 -2.31841,0.0311 -0.70096,-0.0858 -0.99691,-0.527401 -2.049,-0.538371 z"
         sodipodi:nodetypes="cscsccssssccscsccsscacc" />
      <path
         sodipodi:nodetypes="ccc"
         id="path877-8"
         d="m 144.93378,101.57758 0.007,1.80962 0.006,-0.0205"
         style="fill:none;stroke:#000000;stroke-width:0.232807;stroke-linecap:butt;stroke-linejoin:miter;stroke-miterlimit:4;stroke-dasharray:none;stroke-opacity:1" />
      <path
         sodipodi:nodetypes="ccccc"
         id="path1227-2"
         d="m 141.18475,101.45274 0.0352,1.772 3.71353,0.16283 0.83536,-0.17991 -0.0162,-1.71384"
         style="fill:none;stroke:#000000;stroke-width:0.232807;stroke-linecap:butt;stroke-linejoin:miter;stroke-miterlimit:4;stroke-dasharray:none;stroke-opacity:1" />
      <path
         sodipodi:nodetypes="ccccc"
         d="m 144.38157,101.98055 -1.15614,-0.0225 0.011,0.64283 1.14762,0.0313 z"
         style="fill:none;fill-opacity:0.751004;stroke:#000000;stroke-width:0.232807;stroke-miterlimit:4;stroke-dasharray:none;stroke-opacity:1"
         id="rect1185-4" />
      <path
         sodipodi:nodetypes="cccc"
         id="path1220-1"
         d="m 142.76163,103.29011 -0.0188,-1.41079 -0.7587,-0.0124 0.0145,1.37855"
         style="fill:#000000;fill-opacity:0.425703;stroke:#000000;stroke-width:0.232807;stroke-miterlimit:4;stroke-dasharray:none;stroke-opacity:1" />
      <path
         sodipodi:nodetypes="ccc"
         id="path1237-2"
         d="m 145.50345,100.35832 0.35969,1.13598 -0.11048,-4.8e-4"
         style="fill:none;stroke:#000000;stroke-width:0.232807;stroke-linecap:butt;stroke-linejoin:miter;stroke-miterlimit:4;stroke-dasharray:none;stroke-opacity:1" />
      <path
         sodipodi:nodetypes="ccccc"
         id="path1223-6"
         d="m 141.03464,101.45143 1.15676,-1.08717 3.27925,0.0243 -0.44042,1.15767 z"
         style="fill:none;fill-opacity:0.751004;stroke:#000000;stroke-width:0.232807;stroke-linecap:butt;stroke-linejoin:miter;stroke-miterlimit:4;stroke-dasharray:none;stroke-opacity:1" />
    </g>
  </g>
</svg>
