<?xml version="1.0" encoding="UTF-8" standalone="no"?>
<svg
   xmlns:dc="http://purl.org/dc/elements/1.1/"
   xmlns:cc="http://creativecommons.org/ns#"
   xmlns:rdf="http://www.w3.org/1999/02/22-rdf-syntax-ns#"
   xmlns:svg="http://www.w3.org/2000/svg"
   xmlns="http://www.w3.org/2000/svg"
   xmlns:sodipodi="http://sodipodi.sourceforge.net/DTD/sodipodi-0.dtd"
   xmlns:inkscape="http://www.inkscape.org/namespaces/inkscape"
   width="60"
   height="36"
   viewBox="0 0 15.874999 9.5250002"
   version="1.1"
   id="svg8"
   inkscape:version="1.0 (4035a4fb49, 2020-05-01)"
   sodipodi:docname="Commerce2.svg">
  <defs
     id="defs2">
    <marker
       inkscape:isstock="true"
       style="overflow:visible"
       id="marker1308"
       refX="0.0"
       refY="0.0"
       orient="auto"
       inkscape:stockid="Arrow1Lstart">
      <path
         transform="scale(0.8) translate(12.5,0)"
         style="fill-rule:evenodd;stroke:#000000;stroke-width:1pt;stroke-opacity:1;fill:#000000;fill-opacity:1"
         d="M 0.0,0.0 L 5.0,-5.0 L -12.5,0.0 L 5.0,5.0 L 0.0,0.0 z "
         id="path1306" />
    </marker>
    <marker
       inkscape:isstock="true"
       style="overflow:visible"
       id="marker1256"
       refX="0.0"
       refY="0.0"
       orient="auto"
       inkscape:stockid="Arrow1Lstart">
      <path
         transform="scale(0.8) translate(12.5,0)"
         style="fill-rule:evenodd;stroke:#000000;stroke-width:1pt;stroke-opacity:1;fill:#000000;fill-opacity:1"
         d="M 0.0,0.0 L 5.0,-5.0 L -12.5,0.0 L 5.0,5.0 L 0.0,0.0 z "
         id="path1254" />
    </marker>
    <marker
       inkscape:isstock="true"
       style="overflow:visible"
       id="marker1216"
       refX="0.0"
       refY="0.0"
       orient="auto"
       inkscape:stockid="Arrow1Lstart">
      <path
         transform="scale(0.8) translate(12.5,0)"
         style="fill-rule:evenodd;stroke:#000000;stroke-width:1pt;stroke-opacity:1;fill:#000000;fill-opacity:1"
         d="M 0.0,0.0 L 5.0,-5.0 L -12.5,0.0 L 5.0,5.0 L 0.0,0.0 z "
         id="path1214" />
    </marker>
    <marker
       inkscape:isstock="true"
       style="overflow:visible"
       id="marker1182"
       refX="0.0"
       refY="0.0"
       orient="auto"
       inkscape:stockid="Arrow1Lstart">
      <path
         transform="scale(0.8) translate(12.5,0)"
         style="fill-rule:evenodd;stroke:#000000;stroke-width:1pt;stroke-opacity:1;fill:#000000;fill-opacity:1"
         d="M 0.0,0.0 L 5.0,-5.0 L -12.5,0.0 L 5.0,5.0 L 0.0,0.0 z "
         id="path1180" />
    </marker>
    <marker
       inkscape:isstock="true"
       style="overflow:visible"
       id="marker1166"
       refX="0.0"
       refY="0.0"
       orient="auto"
       inkscape:stockid="Arrow1Lstart">
      <path
         transform="scale(0.8) translate(12.5,0)"
         style="fill-rule:evenodd;stroke:#000000;stroke-width:1pt;stroke-opacity:1;fill:#000000;fill-opacity:1"
         d="M 0.0,0.0 L 5.0,-5.0 L -12.5,0.0 L 5.0,5.0 L 0.0,0.0 z "
         id="path1164" />
    </marker>
    <marker
       inkscape:isstock="true"
       style="overflow:visible"
       id="Arrow1Lstart"
       refX="0.0"
       refY="0.0"
       orient="auto"
       inkscape:stockid="Arrow1Lstart">
      <path
         transform="scale(0.8) translate(12.5,0)"
         style="fill-rule:evenodd;stroke:#000000;stroke-width:1pt;stroke-opacity:1;fill:#000000;fill-opacity:1"
         d="M 0.0,0.0 L 5.0,-5.0 L -12.5,0.0 L 5.0,5.0 L 0.0,0.0 z "
         id="path888" />
    </marker>
  </defs>
  <sodipodi:namedview
     fit-margin-bottom="0"
     fit-margin-right="0"
     fit-margin-left="0"
     fit-margin-top="0"
     id="base"
     pagecolor="#ffffff"
     bordercolor="#666666"
     borderopacity="1.0"
     inkscape:pageopacity="0.0"
     inkscape:pageshadow="2"
     inkscape:zoom="5.6568543"
     inkscape:cx="79.758998"
     inkscape:cy="61.070108"
     inkscape:document-units="px"
     inkscape:current-layer="g915"
     inkscape:document-rotation="0"
     showgrid="false"
     units="px"
     inkscape:window-width="1920"
     inkscape:window-height="1017"
     inkscape:window-x="-8"
     inkscape:window-y="-8"
     inkscape:window-maximized="1"
     objecttolerance="1" />
  <metadata
     id="metadata5">
    <rdf:RDF>
      <cc:Work
         rdf:about="">
        <dc:format>image/svg+xml</dc:format>
        <dc:type
           rdf:resource="http://purl.org/dc/dcmitype/StillImage" />
        <dc:title></dc:title>
      </cc:Work>
    </rdf:RDF>
  </metadata>
  <g
     transform="translate(0,-0.06681738)"
     inkscape:label="Layer 1"
     inkscape:groupmode="layer"
     id="layer1">
    <rect
       sodipodi:insensitive="true"
       style="opacity:0.999542;fill:#008bff;fill-opacity:1;stroke:none;stroke-width:0.0867278"
       id="rect833"
       width="15.875"
       height="9.5249996"
       x="0"
       y="0.06681738" />
    <g
       transform="matrix(0.89798325,0,0,1.684749,0.82427535,-6.211328)"
       id="g915">
      <g
         style="font-size:3.50561px;line-height:1.25;font-family:'Agency FB';-inkscape-font-specification:'Agency FB';fill:#00ff00;fill-opacity:1;stroke-width:0.0876405"
         id="text2459"
         transform="matrix(1.3110138,0,0,0.64721049,-2.7576723,3.3655062)"
         aria-label="€">
        <path
           id="path2478"
           style="font-style:normal;font-variant:normal;font-weight:normal;font-stretch:normal;font-family:Arial;-inkscape-font-specification:Arial;fill:#00ff00;fill-opacity:1;stroke-width:0.0876405"
           d="m 8.7393228,5.8719847 q -0.2875696,0 -0.4827061,0.1386496 Q 8.1402195,6.092797 8.0460747,6.2434287 7.9502182,6.3991955 7.933101,6.5395569 H 9.1004965 L 9.0542799,6.7689278 H 7.9057134 q -0.00171,0.035946 -0.00171,0.068469 0,0.1318027 0.00171,0.1574786 h 1.10235 L 8.9601351,7.2242463 H 7.9416596 q 0.071892,0.3919847 0.3457681,0.5563102 0.1968483,0.1181089 0.4262192,0.1181089 0.3200923,0 0.4998233,-0.1677489 v 0.3526151 q -0.2139654,0.09928 -0.4724357,0.09928 -0.7736991,0 -1.0458631,-0.6436081 -0.054775,-0.130091 -0.094145,-0.3149572 H 7.3391329 l 0.047928,-0.2293709 h 0.179731 q -0.00514,-0.071892 -0.00514,-0.1557669 0,-0.034235 0.00171,-0.070181 h -0.224229 l 0.047928,-0.2293709 h 0.19856 Q 7.6917479,5.981535 8.1385078,5.7384702 8.4140953,5.5878385 8.7461697,5.5878385 q 0.3183806,0 0.5357695,0.1386496 L 9.2134702,6.0448687 Q 9.0046399,5.8719847 8.7393228,5.8719847 Z" />
      </g>
      <g
         aria-label="$"
         transform="matrix(1.0843721,0,0,0.35613715,-2.4030928,0.99096645)"
         id="text2387"
         style="font-style:normal;font-weight:normal;font-size:8.24766px;line-height:1.25;font-family:sans-serif;fill:#00ff00;fill-opacity:1;stroke:none;stroke-width:0.0404407;stroke-miterlimit:4;stroke-dasharray:none;stroke-opacity:1">
        <path
           d="m 4.6630146,9.4442877 v -0.612131 h 0.181223 v 0.612131 q 0.4147993,0.024163 0.7410006,0.181223 0.2698209,0.1328968 0.4228537,0.3543916 0.1530327,0.2174677 0.1530327,0.4792337 0,0.205386 -0.1208153,0.346338 -0.1167881,0.140951 -0.2899568,0.140951 -0.1328968,0 -0.2255219,-0.09262 -0.092625,-0.09262 -0.092625,-0.229549 0,-0.0886 0.036245,-0.173169 l 0.072489,-0.153033 q 0.036245,-0.08457 0.036245,-0.201359 0,-0.169141 -0.096652,-0.2939835 Q 5.3838794,9.6738368 5.2066835,9.6094019 5.057678,9.5570486 4.8442376,9.5369128 v 2.2028662 l 0.040272,0.02416 q 0.7208648,0.418826 1.018876,0.769191 0.1973317,0.233576 0.3060655,0.523533 0.1127609,0.28593 0.1127609,0.575886 0,0.402718 -0.1933045,0.728919 -0.1933045,0.326202 -0.5356146,0.503398 -0.3262014,0.165114 -0.749055,0.217467 v 0.65643 h -0.181223 v -0.644348 q -0.3785547,0 -0.7651638,-0.15706 -0.3986905,-0.161087 -0.6201853,-0.44299 -0.2174676,-0.281902 -0.2174676,-0.632267 0,-0.265793 0.1409512,-0.447016 0.1409512,-0.18525 0.3423101,-0.18525 0.1328969,0 0.2174676,0.0886 0.088598,0.08457 0.088598,0.217468 0,0.136924 -0.1490056,0.334256 -0.080544,0.112761 -0.1127609,0.18525 -0.02819,0.07249 -0.02819,0.161087 0,0.217468 0.1409512,0.406745 0.1449784,0.18525 0.3866091,0.28593 0.2335763,0.09665 0.543669,0.09665 h 0.032217 V 12.372046 L 4.4334655,12.239149 Q 4.1072641,12.049872 3.9340954,11.925029 3.764954,11.800187 3.6280299,11.651181 3.2696111,11.25249 3.2696111,10.741039 q 0,-0.322174 0.1530328,-0.60005 Q 3.5756766,9.859087 3.8454975,9.6899455 4.195862,9.4724779 4.6630146,9.4442877 Z m 0,0.084571 Q 4.3891665,9.5449671 4.2079435,9.6295378 3.9985303,9.7302173 3.8696606,9.9557392 3.7407909,10.181261 3.7407909,10.459136 q 0,0.330229 0.1892774,0.60005 0.1047066,0.149005 0.2335763,0.253712 0.1328968,0.104707 0.4590982,0.298011 l 0.040272,0.02416 z m 0.181223,5.4648793 q 0.1892773,-0.02014 0.3060655,-0.06443 0.1167881,-0.0443 0.2214947,-0.12887 0.1771958,-0.144979 0.2819025,-0.390636 0.1047066,-0.249685 0.1047066,-0.531588 0,-0.809463 -0.9141693,-1.393403 z"
           style="font-style:normal;font-variant:normal;font-weight:normal;font-stretch:normal;font-family:'Baskerville Old Face';-inkscape-font-specification:'Baskerville Old Face';fill:#00ff00;fill-opacity:1;stroke:none;stroke-width:0.0404407;stroke-miterlimit:4;stroke-dasharray:none;stroke-opacity:1"
           id="path2410" />
      </g>
      <g
         style="font-size:4.9404px;line-height:1.25;font-family:Algerian;-inkscape-font-specification:Algerian;stroke-width:0.12351"
         id="text2443"
         transform="matrix(1.2192578,0,0,0.55272491,2.548062,-0.70154)"
         aria-label="¥">
        <path
           id="path2472"
           style="font-style:normal;font-variant:normal;font-weight:normal;font-stretch:normal;font-family:sans-serif;-inkscape-font-specification:sans-serif;fill:#00ff00;fill-opacity:1;stroke:none;stroke-width:0.12351;stroke-opacity:1"
           d="m 10.233161,9.592743 -1.0807126,2.031161 v 0.113378 H 10.049826 V 12.07018 H 9.157273 v 0.332898 h 0.892553 v 0.332898 H 9.157273 v 0.448689 H 8.7037597 V 12.735976 H 7.811207 V 12.403078 H 8.7037597 V 12.07018 H 7.811207 V 11.737282 H 8.7085843 V 11.623904 L 7.6206349,9.592743 h 0.5114086 l 0.8008852,1.589709 0.8105344,-1.589709 z" />
      </g>
      <text
         xml:space="preserve"
         style="font-size:8.6044px;line-height:1.25;font-family:Algerian;-inkscape-font-specification:Algerian;stroke-width:0.21511"
         x="1.9917035"
         y="11.549706"
         id="text2447"
         transform="scale(1.3697253,0.73007339)"><tspan
           sodipodi:role="line"
           id="tspan2445"
           x="1.9917035"
           y="11.549706"
           style="stroke-width:0.21511" /></text>
      <text
         xml:space="preserve"
         style="font-size:8.6044px;line-height:1.25;font-family:Algerian;-inkscape-font-specification:Algerian;stroke-width:0.21511"
         x="4.8627009"
         y="11.207468"
         id="text2451"
         transform="scale(1.3697253,0.73007339)"><tspan
           sodipodi:role="line"
           id="tspan2449"
           x="4.8627009"
           y="11.207468"
           style="stroke-width:0.21511" /></text>
    </g>
  </g>
</svg>
